<svg xmlns="http://www.w3.org/2000/svg" xmlns:xlink="http://www.w3.org/1999/xlink" width="500" zoomAndPan="magnify" viewBox="0 0 375 374.999991" height="500" preserveAspectRatio="xMidYMid meet" version="1.0"><defs><clipPath id="36452ddbf7"><path d="M 102 158 L 258 158 L 258 334.867188 L 102 334.867188 Z M 102 158 " clip-rule="nonzero"/></clipPath><clipPath id="68fe8df745"><path d="M 25.117188 25.117188 L 334.867188 25.117188 L 334.867188 215 L 25.117188 215 Z M 25.117188 25.117188 " clip-rule="nonzero"/></clipPath><clipPath id="cbc6f8b8ce"><path d="M 240 265 L 312 265 L 312 346.941406 L 240 346.941406 Z M 240 265 " clip-rule="nonzero"/></clipPath><clipPath id="8ad9f2925f"><path d="M 204.441406 204.441406 L 346.941406 204.441406 L 346.941406 292 L 204.441406 292 Z M 204.441406 204.441406 " clip-rule="nonzero"/></clipPath><clipPath id="132e527501"><path d="M 248 272 L 317 272 L 317 349.644531 L 248 349.644531 Z M 248 272 " clip-rule="nonzero"/></clipPath><clipPath id="35644d3aa8"><path d="M 214.644531 214.644531 L 349.644531 214.644531 L 349.644531 298 L 214.644531 298 Z M 214.644531 214.644531 " clip-rule="nonzero"/></clipPath><clipPath id="c905d0ce11"><path d="M 250.773438 249.539062 L 272.050781 249.539062 L 272.050781 282.285156 L 250.773438 282.285156 Z M 250.773438 249.539062 " clip-rule="nonzero"/></clipPath><clipPath id="a4d08cada0"><path d="M 261.410156 249.539062 C 255.535156 249.539062 250.773438 256.863281 250.773438 265.902344 C 250.773438 274.9375 255.535156 282.261719 261.410156 282.261719 C 267.285156 282.261719 272.050781 274.9375 272.050781 265.902344 C 272.050781 256.863281 267.285156 249.539062 261.410156 249.539062 Z M 261.410156 249.539062 " clip-rule="nonzero"/></clipPath><clipPath id="b844871a20"><path d="M 251.03125 258.800781 L 266.285156 258.800781 L 266.285156 282.277344 L 251.03125 282.277344 Z M 251.03125 258.800781 " clip-rule="nonzero"/></clipPath><clipPath id="70fd3f20f1"><path d="M 258.660156 258.800781 C 254.445312 258.800781 251.03125 264.050781 251.03125 270.53125 C 251.03125 277.011719 254.445312 282.261719 258.660156 282.261719 C 262.871094 282.261719 266.285156 277.011719 266.285156 270.53125 C 266.285156 264.050781 262.871094 258.800781 258.660156 258.800781 Z M 258.660156 258.800781 " clip-rule="nonzero"/></clipPath><clipPath id="48123227a0"><path d="M 262.554688 263.03125 L 266.285156 263.03125 L 266.285156 268.773438 L 262.554688 268.773438 Z M 262.554688 263.03125 " clip-rule="nonzero"/></clipPath><clipPath id="d37a0dd1c7"><path d="M 264.421875 263.03125 C 263.390625 263.03125 262.554688 264.316406 262.554688 265.902344 C 262.554688 267.484375 263.390625 268.769531 264.421875 268.769531 C 265.453125 268.769531 266.285156 267.484375 266.285156 265.902344 C 266.285156 264.316406 265.453125 263.03125 264.421875 263.03125 Z M 264.421875 263.03125 " clip-rule="nonzero"/></clipPath><clipPath id="58f3d6ce0d"><path d="M 282.261719 249.539062 L 303.539062 249.539062 L 303.539062 282.285156 L 282.261719 282.285156 Z M 282.261719 249.539062 " clip-rule="nonzero"/></clipPath><clipPath id="19da3620df"><path d="M 292.902344 249.539062 C 287.027344 249.539062 282.261719 256.863281 282.261719 265.902344 C 282.261719 274.9375 287.027344 282.261719 292.902344 282.261719 C 298.777344 282.261719 303.539062 274.9375 303.539062 265.902344 C 303.539062 256.863281 298.777344 249.539062 292.902344 249.539062 Z M 292.902344 249.539062 " clip-rule="nonzero"/></clipPath><clipPath id="ef835fdd57"><path d="M 282.261719 258.800781 L 297.519531 258.800781 L 297.519531 282.277344 L 282.261719 282.277344 Z M 282.261719 258.800781 " clip-rule="nonzero"/></clipPath><clipPath id="421436dad7"><path d="M 289.890625 258.800781 C 285.679688 258.800781 282.261719 264.050781 282.261719 270.53125 C 282.261719 277.011719 285.679688 282.261719 289.890625 282.261719 C 294.101562 282.261719 297.519531 277.011719 297.519531 270.53125 C 297.519531 264.050781 294.101562 258.800781 289.890625 258.800781 Z M 289.890625 258.800781 " clip-rule="nonzero"/></clipPath><clipPath id="a1150c1e3c"><path d="M 293.789062 263.03125 L 297.519531 263.03125 L 297.519531 268.773438 L 293.789062 268.773438 Z M 293.789062 263.03125 " clip-rule="nonzero"/></clipPath><clipPath id="b2dc05d573"><path d="M 295.652344 263.03125 C 294.625 263.03125 293.789062 264.316406 293.789062 265.902344 C 293.789062 267.484375 294.625 268.769531 295.652344 268.769531 C 296.683594 268.769531 297.519531 267.484375 297.519531 265.902344 C 297.519531 264.316406 296.683594 263.03125 295.652344 263.03125 Z M 295.652344 263.03125 " clip-rule="nonzero"/></clipPath><clipPath id="372505ca1d"><path d="M 268.789062 284.71875 L 284.539062 284.71875 L 284.539062 292.96875 L 268.789062 292.96875 Z M 268.789062 284.71875 " clip-rule="nonzero"/></clipPath></defs><g clip-path="url(#36452ddbf7)"><path fill="#99aab5" d="M 257.429688 309.054688 C 257.429688 328.0625 242.019531 334.867188 223.011719 334.867188 L 136.972656 334.867188 C 117.964844 334.867188 102.554688 328.0625 102.554688 309.054688 C 102.554688 290.046875 128.367188 248.824219 128.367188 197.199219 C 128.367188 145.574219 231.617188 145.574219 231.617188 197.199219 C 231.617188 248.824219 257.429688 290.046875 257.429688 309.054688 Z M 257.429688 309.054688 " fill-opacity="1" fill-rule="nonzero"/></g><g clip-path="url(#68fe8df745)"><path fill="#dd2e44" d="M 323.386719 121.386719 L 323.378906 121.371094 C 315.121094 101.089844 302.695312 83.058594 287.171875 68.179688 L 287.148438 68.179688 C 259.339844 41.5 221.628906 25.117188 179.992188 25.117188 C 142.460938 25.117188 108.050781 38.375 81.25 60.523438 C 62.40625 76.085938 47.339844 96.058594 37.574219 118.902344 C 29.574219 137.617188 25.117188 158.25 25.117188 179.992188 C 25.117188 199 40.527344 214.410156 59.535156 214.410156 L 300.449219 214.410156 C 319.457031 214.410156 334.867188 199 334.867188 179.992188 C 334.867188 159.195312 330.738281 139.441406 323.386719 121.386719 Z M 323.386719 121.386719 " fill-opacity="1" fill-rule="nonzero"/></g><path fill="#f4abba" d="M 91.4375 167.800781 C 121.335938 167.800781 145.574219 143.5625 145.574219 113.660156 C 145.574219 83.761719 121.34375 59.535156 91.4375 59.535156 C 87.953125 59.535156 84.554688 59.894531 81.25 60.523438 C 62.40625 76.085938 47.339844 96.058594 37.574219 118.902344 C 40.207031 146.339844 63.308594 167.800781 91.4375 167.800781 Z M 91.4375 167.800781 " fill-opacity="1" fill-rule="nonzero"/><path fill="#f4abba" d="M 91.4375 61.683594 C 120.097656 61.683594 143.414062 85 143.414062 113.671875 C 143.414062 142.339844 120.097656 165.65625 91.4375 165.65625 C 64.703125 165.65625 42.582031 145.746094 39.761719 119.246094 C 49.199219 97.382812 63.851562 77.800781 82.1875 62.542969 C 85.320312 61.96875 88.433594 61.683594 91.4375 61.683594 M 91.4375 59.535156 C 87.953125 59.535156 84.554688 59.894531 81.25 60.523438 C 62.40625 76.085938 47.339844 96.058594 37.574219 118.902344 C 40.207031 146.339844 63.320312 167.800781 91.445312 167.800781 C 121.34375 167.800781 145.574219 143.5625 145.574219 113.660156 C 145.574219 83.761719 121.34375 59.535156 91.4375 59.535156 Z M 248.824219 106.855469 C 248.824219 128.238281 266.164062 145.574219 287.542969 145.574219 C 303.78125 145.574219 317.632812 135.558594 323.386719 121.386719 L 323.378906 121.371094 C 315.121094 101.089844 302.695312 83.058594 287.171875 68.179688 C 265.964844 68.378906 248.824219 85.59375 248.824219 106.855469 Z M 248.824219 106.855469 " fill-opacity="1" fill-rule="nonzero"/><path fill="#f4abba" d="M 248.824219 162.785156 C 248.824219 164.050781 248.761719 165.316406 248.636719 166.578125 C 248.515625 167.839844 248.328125 169.09375 248.082031 170.335938 C 247.832031 171.582031 247.527344 172.808594 247.15625 174.023438 C 246.789062 175.234375 246.363281 176.429688 245.878906 177.601562 C 245.390625 178.773438 244.851562 179.917969 244.253906 181.035156 C 243.65625 182.152344 243.003906 183.238281 242.300781 184.292969 C 241.59375 185.347656 240.839844 186.367188 240.035156 187.347656 C 239.230469 188.328125 238.382812 189.265625 237.484375 190.160156 C 236.585938 191.058594 235.648438 191.910156 234.667969 192.714844 C 233.6875 193.519531 232.671875 194.273438 231.617188 194.976562 C 230.5625 195.679688 229.476562 196.332031 228.359375 196.929688 C 227.238281 197.527344 226.09375 198.070312 224.921875 198.554688 C 223.75 199.039062 222.558594 199.464844 221.34375 199.835938 C 220.132812 200.203125 218.902344 200.511719 217.660156 200.757812 C 216.417969 201.003906 215.164062 201.191406 213.902344 201.316406 C 212.640625 201.441406 211.375 201.503906 210.105469 201.503906 C 208.839844 201.503906 207.574219 201.441406 206.3125 201.316406 C 205.050781 201.191406 203.796875 201.003906 202.550781 200.757812 C 201.308594 200.511719 200.082031 200.203125 198.867188 199.835938 C 197.652344 199.464844 196.460938 199.039062 195.289062 198.554688 C 194.117188 198.070312 192.972656 197.527344 191.855469 196.929688 C 190.734375 196.332031 189.648438 195.679688 188.59375 194.976562 C 187.539062 194.273438 186.523438 193.519531 185.542969 192.714844 C 184.5625 191.910156 183.625 191.058594 182.726562 190.160156 C 181.832031 189.265625 180.980469 188.328125 180.175781 187.347656 C 179.371094 186.367188 178.617188 185.347656 177.914062 184.292969 C 177.207031 183.238281 176.558594 182.152344 175.960938 181.035156 C 175.363281 179.917969 174.820312 178.773438 174.335938 177.601562 C 173.847656 176.429688 173.421875 175.234375 173.054688 174.023438 C 172.6875 172.808594 172.378906 171.582031 172.132812 170.335938 C 171.882812 169.09375 171.699219 167.839844 171.574219 166.578125 C 171.449219 165.316406 171.386719 164.050781 171.386719 162.785156 C 171.386719 161.515625 171.449219 160.25 171.574219 158.988281 C 171.699219 157.726562 171.882812 156.472656 172.132812 155.230469 C 172.378906 153.984375 172.6875 152.757812 173.054688 151.542969 C 173.421875 150.332031 173.847656 149.136719 174.335938 147.964844 C 174.820312 146.792969 175.363281 145.648438 175.960938 144.53125 C 176.558594 143.414062 177.207031 142.328125 177.914062 141.273438 C 178.617188 140.21875 179.371094 139.199219 180.175781 138.21875 C 180.980469 137.238281 181.832031 136.300781 182.726562 135.40625 C 183.625 134.507812 184.5625 133.65625 185.542969 132.851562 C 186.523438 132.046875 187.539062 131.292969 188.59375 130.589844 C 189.648438 129.886719 190.734375 129.234375 191.855469 128.636719 C 192.972656 128.039062 194.117188 127.496094 195.289062 127.011719 C 196.460938 126.527344 197.652344 126.101562 198.867188 125.730469 C 200.082031 125.363281 201.308594 125.054688 202.550781 124.808594 C 203.796875 124.5625 205.050781 124.375 206.3125 124.25 C 207.574219 124.125 208.839844 124.066406 210.105469 124.066406 C 211.375 124.066406 212.640625 124.125 213.902344 124.25 C 215.164062 124.375 216.417969 124.5625 217.660156 124.808594 C 218.902344 125.054688 220.132812 125.363281 221.34375 125.730469 C 222.558594 126.101562 223.75 126.527344 224.921875 127.011719 C 226.09375 127.496094 227.238281 128.039062 228.359375 128.636719 C 229.476562 129.234375 230.5625 129.886719 231.617188 130.589844 C 232.671875 131.292969 233.6875 132.046875 234.667969 132.851562 C 235.648438 133.65625 236.585938 134.507812 237.484375 135.40625 C 238.382812 136.300781 239.230469 137.238281 240.035156 138.21875 C 240.839844 139.199219 241.59375 140.21875 242.300781 141.273438 C 243.003906 142.328125 243.65625 143.414062 244.253906 144.53125 C 244.851562 145.648438 245.390625 146.792969 245.878906 147.964844 C 246.363281 149.136719 246.789062 150.332031 247.15625 151.542969 C 247.527344 152.757812 247.832031 153.984375 248.082031 155.230469 C 248.328125 156.472656 248.515625 157.726562 248.636719 158.988281 C 248.761719 160.25 248.824219 161.515625 248.824219 162.785156 Z M 248.824219 162.785156 " fill-opacity="1" fill-rule="nonzero"/><path fill="#f4abba" d="M 223.011719 68.136719 C 223.011719 68.984375 222.972656 69.828125 222.886719 70.667969 C 222.804688 71.507812 222.679688 72.34375 222.515625 73.171875 C 222.351562 74.003906 222.144531 74.820312 221.902344 75.628906 C 221.65625 76.4375 221.371094 77.234375 221.046875 78.015625 C 220.722656 78.796875 220.363281 79.558594 219.964844 80.304688 C 219.566406 81.050781 219.132812 81.773438 218.664062 82.476562 C 218.191406 83.179688 217.691406 83.859375 217.152344 84.511719 C 216.617188 85.167969 216.050781 85.792969 215.453125 86.390625 C 214.855469 86.988281 214.230469 87.554688 213.574219 88.089844 C 212.921875 88.628906 212.242188 89.128906 211.539062 89.601562 C 210.835938 90.070312 210.113281 90.503906 209.367188 90.902344 C 208.621094 91.300781 207.859375 91.660156 207.078125 91.984375 C 206.296875 92.308594 205.5 92.59375 204.691406 92.839844 C 203.882812 93.082031 203.066406 93.289062 202.234375 93.453125 C 201.40625 93.617188 200.570312 93.742188 199.730469 93.824219 C 198.890625 93.910156 198.046875 93.949219 197.199219 93.949219 C 196.355469 93.949219 195.511719 93.910156 194.667969 93.824219 C 193.828125 93.742188 192.992188 93.617188 192.164062 93.453125 C 191.335938 93.289062 190.515625 93.082031 189.707031 92.839844 C 188.898438 92.59375 188.101562 92.308594 187.320312 91.984375 C 186.539062 91.660156 185.777344 91.300781 185.03125 90.902344 C 184.285156 90.503906 183.5625 90.070312 182.859375 89.601562 C 182.15625 89.128906 181.476562 88.628906 180.824219 88.089844 C 180.171875 87.554688 179.546875 86.988281 178.949219 86.390625 C 178.351562 85.792969 177.78125 85.167969 177.246094 84.511719 C 176.710938 83.859375 176.207031 83.179688 175.738281 82.476562 C 175.269531 81.773438 174.832031 81.050781 174.433594 80.304688 C 174.035156 79.558594 173.675781 78.796875 173.351562 78.015625 C 173.027344 77.234375 172.746094 76.4375 172.5 75.628906 C 172.253906 74.820312 172.046875 74.003906 171.882812 73.171875 C 171.71875 72.34375 171.59375 71.507812 171.511719 70.667969 C 171.429688 69.828125 171.386719 68.984375 171.386719 68.136719 C 171.386719 67.292969 171.429688 66.449219 171.511719 65.605469 C 171.59375 64.765625 171.71875 63.929688 171.882812 63.101562 C 172.046875 62.273438 172.253906 61.453125 172.5 60.644531 C 172.746094 59.835938 173.027344 59.039062 173.351562 58.257812 C 173.675781 57.476562 174.035156 56.714844 174.433594 55.96875 C 174.832031 55.222656 175.269531 54.5 175.738281 53.796875 C 176.207031 53.09375 176.710938 52.414062 177.246094 51.761719 C 177.78125 51.109375 178.351562 50.484375 178.949219 49.886719 C 179.546875 49.289062 180.171875 48.71875 180.824219 48.183594 C 181.476562 47.648438 182.15625 47.144531 182.859375 46.675781 C 183.5625 46.207031 184.285156 45.769531 185.03125 45.371094 C 185.777344 44.972656 186.539062 44.613281 187.320312 44.289062 C 188.101562 43.964844 188.898438 43.683594 189.707031 43.4375 C 190.515625 43.191406 191.335938 42.984375 192.164062 42.820312 C 192.992188 42.65625 193.828125 42.53125 194.667969 42.449219 C 195.511719 42.367188 196.355469 42.324219 197.199219 42.324219 C 198.046875 42.324219 198.890625 42.367188 199.730469 42.449219 C 200.570312 42.53125 201.40625 42.65625 202.234375 42.820312 C 203.066406 42.984375 203.882812 43.191406 204.691406 43.4375 C 205.5 43.683594 206.296875 43.964844 207.078125 44.289062 C 207.859375 44.613281 208.621094 44.972656 209.367188 45.371094 C 210.113281 45.769531 210.835938 46.207031 211.539062 46.675781 C 212.242188 47.144531 212.921875 47.648438 213.574219 48.183594 C 214.230469 48.71875 214.855469 49.289062 215.453125 49.886719 C 216.050781 50.484375 216.617188 51.109375 217.152344 51.761719 C 217.691406 52.414062 218.191406 53.09375 218.664062 53.796875 C 219.132812 54.5 219.566406 55.222656 219.964844 55.96875 C 220.363281 56.714844 220.722656 57.476562 221.046875 58.257812 C 221.371094 59.039062 221.65625 59.835938 221.902344 60.644531 C 222.144531 61.453125 222.351562 62.273438 222.515625 63.101562 C 222.679688 63.929688 222.804688 64.765625 222.886719 65.605469 C 222.972656 66.449219 223.011719 67.292969 223.011719 68.136719 Z M 223.011719 68.136719 " fill-opacity="1" fill-rule="nonzero"/><g clip-path="url(#cbc6f8b8ce)"><path fill="#000000" d="M 311.492188 335.28125 C 311.492188 344.042969 304.394531 347.175781 295.632812 347.175781 L 255.984375 347.175781 C 247.226562 347.175781 240.125 344.042969 240.125 335.28125 C 240.125 326.523438 252.019531 307.527344 252.019531 283.738281 C 252.019531 259.949219 299.597656 259.949219 299.597656 283.738281 C 299.597656 307.527344 311.492188 326.523438 311.492188 335.28125 Z M 311.492188 335.28125 " fill-opacity="1" fill-rule="nonzero"/></g><g clip-path="url(#8ad9f2925f)"><path fill="#000000" d="M 341.886719 248.804688 L 341.882812 248.796875 C 338.078125 239.453125 332.351562 231.140625 325.199219 224.289062 L 325.1875 224.289062 C 312.375 211.992188 294.996094 204.441406 275.808594 204.441406 C 258.515625 204.441406 242.660156 210.554688 230.308594 220.757812 C 221.625 227.929688 214.683594 237.132812 210.183594 247.660156 C 206.496094 256.285156 204.441406 265.792969 204.441406 275.808594 C 204.441406 284.570312 211.542969 291.667969 220.300781 291.667969 L 331.316406 291.667969 C 340.078125 291.667969 347.175781 284.570312 347.175781 275.808594 C 347.175781 266.226562 345.273438 257.125 341.886719 248.804688 Z M 341.886719 248.804688 " fill-opacity="1" fill-rule="nonzero"/></g><path fill="#000000" d="M 235.003906 270.191406 C 248.78125 270.191406 259.949219 259.023438 259.949219 245.246094 C 259.949219 231.46875 248.785156 220.300781 235.003906 220.300781 C 233.398438 220.300781 231.832031 220.46875 230.308594 220.757812 C 221.625 227.929688 214.683594 237.132812 210.183594 247.660156 C 211.398438 260.304688 222.042969 270.191406 235.003906 270.191406 Z M 235.003906 270.191406 " fill-opacity="1" fill-rule="nonzero"/><path fill="#000000" d="M 235.003906 221.292969 C 248.210938 221.292969 258.957031 232.039062 258.957031 245.25 C 258.957031 258.460938 248.210938 269.203125 235.003906 269.203125 C 222.683594 269.203125 212.492188 260.03125 211.191406 247.820312 C 215.539062 237.742188 222.292969 228.71875 230.742188 221.691406 C 232.183594 221.425781 233.621094 221.292969 235.003906 221.292969 M 235.003906 220.300781 C 233.398438 220.300781 231.832031 220.46875 230.308594 220.757812 C 221.625 227.929688 214.683594 237.132812 210.183594 247.660156 C 211.398438 260.304688 222.046875 270.191406 235.007812 270.191406 C 248.785156 270.191406 259.949219 259.023438 259.949219 245.246094 C 259.949219 231.46875 248.785156 220.300781 235.003906 220.300781 Z M 307.527344 242.109375 C 307.527344 251.960938 315.519531 259.949219 325.371094 259.949219 C 332.851562 259.949219 339.234375 255.335938 341.886719 248.804688 L 341.882812 248.796875 C 338.078125 239.453125 332.351562 231.140625 325.199219 224.289062 C 315.425781 224.378906 307.527344 232.3125 307.527344 242.109375 Z M 307.527344 242.109375 " fill-opacity="1" fill-rule="nonzero"/><path fill="#000000" d="M 307.527344 267.878906 C 307.527344 268.464844 307.5 269.046875 307.441406 269.628906 C 307.386719 270.210938 307.300781 270.789062 307.1875 271.363281 C 307.070312 271.933594 306.929688 272.5 306.761719 273.058594 C 306.589844 273.617188 306.394531 274.167969 306.171875 274.707031 C 305.949219 275.25 305.699219 275.777344 305.421875 276.292969 C 305.148438 276.804688 304.847656 277.308594 304.523438 277.792969 C 304.199219 278.277344 303.851562 278.746094 303.480469 279.199219 C 303.109375 279.652344 302.714844 280.082031 302.304688 280.496094 C 301.890625 280.910156 301.457031 281.300781 301.007812 281.671875 C 300.554688 282.042969 300.085938 282.390625 299.597656 282.714844 C 299.113281 283.039062 298.613281 283.339844 298.097656 283.617188 C 297.582031 283.890625 297.054688 284.140625 296.515625 284.363281 C 295.976562 284.585938 295.425781 284.785156 294.867188 284.953125 C 294.308594 285.125 293.742188 285.265625 293.167969 285.378906 C 292.59375 285.492188 292.019531 285.578125 291.4375 285.636719 C 290.855469 285.695312 290.273438 285.722656 289.6875 285.722656 C 289.101562 285.722656 288.519531 285.695312 287.9375 285.636719 C 287.355469 285.578125 286.78125 285.492188 286.207031 285.378906 C 285.632812 285.265625 285.066406 285.125 284.507812 284.953125 C 283.949219 284.785156 283.398438 284.585938 282.859375 284.363281 C 282.320312 284.140625 281.792969 283.890625 281.277344 283.617188 C 280.761719 283.339844 280.261719 283.039062 279.773438 282.714844 C 279.289062 282.390625 278.820312 282.042969 278.367188 281.671875 C 277.917969 281.300781 277.484375 280.910156 277.070312 280.496094 C 276.65625 280.082031 276.265625 279.652344 275.894531 279.199219 C 275.523438 278.746094 275.175781 278.277344 274.851562 277.792969 C 274.527344 277.308594 274.226562 276.804688 273.953125 276.292969 C 273.675781 275.777344 273.425781 275.25 273.203125 274.707031 C 272.980469 274.167969 272.785156 273.617188 272.613281 273.058594 C 272.445312 272.5 272.300781 271.933594 272.1875 271.363281 C 272.074219 270.789062 271.988281 270.210938 271.929688 269.628906 C 271.875 269.046875 271.84375 268.464844 271.84375 267.878906 C 271.84375 267.296875 271.875 266.714844 271.929688 266.132812 C 271.988281 265.550781 272.074219 264.972656 272.1875 264.398438 C 272.300781 263.828125 272.445312 263.261719 272.613281 262.703125 C 272.785156 262.140625 272.980469 261.59375 273.203125 261.054688 C 273.425781 260.511719 273.675781 259.984375 273.953125 259.46875 C 274.226562 258.953125 274.527344 258.453125 274.851562 257.96875 C 275.175781 257.480469 275.523438 257.011719 275.894531 256.5625 C 276.265625 256.109375 276.65625 255.679688 277.070312 255.265625 C 277.484375 254.851562 277.917969 254.460938 278.367188 254.089844 C 278.820312 253.71875 279.289062 253.371094 279.773438 253.046875 C 280.261719 252.722656 280.761719 252.421875 281.277344 252.144531 C 281.792969 251.871094 282.320312 251.621094 282.859375 251.398438 C 283.398438 251.171875 283.949219 250.976562 284.507812 250.808594 C 285.066406 250.636719 285.632812 250.496094 286.207031 250.382812 C 286.78125 250.269531 287.355469 250.183594 287.9375 250.125 C 288.519531 250.066406 289.101562 250.039062 289.6875 250.039062 C 290.273438 250.039062 290.855469 250.066406 291.4375 250.125 C 292.019531 250.183594 292.59375 250.269531 293.167969 250.382812 C 293.742188 250.496094 294.308594 250.636719 294.867188 250.808594 C 295.425781 250.976562 295.976562 251.171875 296.515625 251.398438 C 297.054688 251.621094 297.582031 251.871094 298.097656 252.144531 C 298.613281 252.421875 299.113281 252.722656 299.597656 253.046875 C 300.085938 253.371094 300.554688 253.71875 301.007812 254.089844 C 301.457031 254.460938 301.890625 254.851562 302.304688 255.265625 C 302.714844 255.679688 303.109375 256.109375 303.480469 256.5625 C 303.851562 257.011719 304.199219 257.480469 304.523438 257.96875 C 304.847656 258.453125 305.148438 258.953125 305.421875 259.46875 C 305.699219 259.984375 305.949219 260.511719 306.171875 261.054688 C 306.394531 261.59375 306.589844 262.140625 306.761719 262.703125 C 306.929688 263.261719 307.070312 263.828125 307.1875 264.398438 C 307.300781 264.972656 307.386719 265.550781 307.441406 266.132812 C 307.5 266.714844 307.527344 267.296875 307.527344 267.878906 Z M 307.527344 267.878906 " fill-opacity="1" fill-rule="nonzero"/><path fill="#000000" d="M 295.632812 224.265625 C 295.632812 225.046875 295.558594 225.820312 295.40625 226.585938 C 295.253906 227.355469 295.027344 228.097656 294.730469 228.820312 C 294.429688 229.539062 294.0625 230.226562 293.628906 230.875 C 293.195312 231.523438 292.703125 232.125 292.152344 232.679688 C 291.597656 233.230469 290.996094 233.722656 290.347656 234.15625 C 289.699219 234.589844 289.011719 234.957031 288.292969 235.257812 C 287.570312 235.554688 286.828125 235.78125 286.058594 235.933594 C 285.292969 236.085938 284.519531 236.160156 283.738281 236.160156 C 282.957031 236.160156 282.183594 236.085938 281.417969 235.933594 C 280.652344 235.78125 279.910156 235.554688 279.1875 235.257812 C 278.464844 234.957031 277.78125 234.589844 277.132812 234.15625 C 276.480469 233.722656 275.882812 233.230469 275.328125 232.679688 C 274.777344 232.125 274.285156 231.523438 273.851562 230.875 C 273.417969 230.226562 273.050781 229.539062 272.75 228.820312 C 272.453125 228.097656 272.226562 227.355469 272.074219 226.585938 C 271.921875 225.820312 271.84375 225.046875 271.84375 224.265625 C 271.84375 223.484375 271.921875 222.710938 272.074219 221.945312 C 272.226562 221.179688 272.453125 220.4375 272.75 219.714844 C 273.050781 218.992188 273.417969 218.308594 273.851562 217.660156 C 274.285156 217.007812 274.777344 216.410156 275.328125 215.855469 C 275.882812 215.304688 276.480469 214.8125 277.132812 214.378906 C 277.78125 213.945312 278.464844 213.578125 279.1875 213.277344 C 279.910156 212.980469 280.652344 212.753906 281.417969 212.601562 C 282.183594 212.449219 282.957031 212.371094 283.738281 212.371094 C 284.519531 212.371094 285.292969 212.449219 286.058594 212.601562 C 286.828125 212.753906 287.570312 212.980469 288.292969 213.277344 C 289.011719 213.578125 289.699219 213.945312 290.347656 214.378906 C 290.996094 214.8125 291.597656 215.304688 292.152344 215.855469 C 292.703125 216.410156 293.195312 217.007812 293.628906 217.660156 C 294.0625 218.308594 294.429688 218.992188 294.730469 219.714844 C 295.027344 220.4375 295.253906 221.179688 295.40625 221.945312 C 295.558594 222.710938 295.632812 223.484375 295.632812 224.265625 Z M 295.632812 224.265625 " fill-opacity="1" fill-rule="nonzero"/><g clip-path="url(#132e527501)"><path fill="#99aab5" d="M 316.070312 338.609375 C 316.070312 346.90625 309.339844 349.878906 301.042969 349.878906 L 263.476562 349.878906 C 255.179688 349.878906 248.453125 346.90625 248.453125 338.609375 C 248.453125 330.308594 259.722656 312.3125 259.722656 289.773438 C 259.722656 267.234375 304.800781 267.234375 304.800781 289.773438 C 304.800781 312.3125 316.070312 330.308594 316.070312 338.609375 Z M 316.070312 338.609375 " fill-opacity="1" fill-rule="nonzero"/></g><g clip-path="url(#35644d3aa8)"><path fill="#f4abba" d="M 344.867188 256.675781 L 344.863281 256.667969 C 341.257812 247.8125 335.832031 239.9375 329.054688 233.445312 L 329.042969 233.445312 C 316.902344 221.796875 300.4375 214.644531 282.261719 214.644531 C 265.875 214.644531 250.851562 220.433594 239.152344 230.101562 C 230.921875 236.898438 224.347656 245.617188 220.082031 255.589844 C 216.589844 263.757812 214.644531 272.769531 214.644531 282.261719 C 214.644531 290.558594 221.371094 297.285156 229.667969 297.285156 L 334.851562 297.285156 C 343.148438 297.285156 349.878906 290.558594 349.878906 282.261719 C 349.878906 273.179688 348.074219 264.554688 344.867188 256.675781 Z M 344.867188 256.675781 " fill-opacity="1" fill-rule="nonzero"/></g><path fill="#dd2e44" d="M 243.597656 276.9375 C 256.652344 276.9375 267.234375 266.355469 267.234375 253.300781 C 267.234375 240.246094 256.65625 229.667969 243.597656 229.667969 C 242.078125 229.667969 240.59375 229.828125 239.152344 230.101562 C 230.921875 236.898438 224.347656 245.617188 220.082031 255.589844 C 221.230469 267.570312 231.316406 276.9375 243.597656 276.9375 Z M 243.597656 276.9375 " fill-opacity="1" fill-rule="nonzero"/><path fill="#dd2e44" d="M 243.597656 230.609375 C 256.109375 230.609375 266.292969 240.789062 266.292969 253.304688 C 266.292969 265.820312 256.109375 276 243.597656 276 C 231.925781 276 222.269531 267.308594 221.035156 255.738281 C 225.15625 246.195312 231.554688 237.644531 239.558594 230.984375 C 240.925781 230.730469 242.289062 230.609375 243.597656 230.609375 M 243.597656 229.667969 C 242.078125 229.667969 240.59375 229.828125 239.152344 230.101562 C 230.921875 236.898438 224.347656 245.617188 220.082031 255.589844 C 221.230469 267.570312 231.320312 276.9375 243.601562 276.9375 C 256.65625 276.9375 267.234375 266.355469 267.234375 253.300781 C 267.234375 240.246094 256.65625 229.667969 243.597656 229.667969 Z M 312.3125 250.328125 C 312.3125 259.664062 319.882812 267.234375 329.214844 267.234375 C 336.304688 267.234375 342.351562 262.863281 344.867188 256.675781 L 344.863281 256.667969 C 341.257812 247.8125 335.832031 239.9375 329.054688 233.445312 C 319.796875 233.53125 312.3125 241.046875 312.3125 250.328125 Z M 312.3125 250.328125 " fill-opacity="1" fill-rule="nonzero"/><path fill="#dd2e44" d="M 312.3125 274.746094 C 312.3125 275.300781 312.285156 275.851562 312.230469 276.402344 C 312.175781 276.957031 312.09375 277.503906 311.988281 278.046875 C 311.878906 278.589844 311.746094 279.125 311.585938 279.65625 C 311.421875 280.183594 311.238281 280.703125 311.027344 281.214844 C 310.8125 281.726562 310.578125 282.226562 310.316406 282.714844 C 310.054688 283.203125 309.769531 283.679688 309.464844 284.140625 C 309.15625 284.597656 308.828125 285.042969 308.476562 285.472656 C 308.125 285.898438 307.753906 286.308594 307.359375 286.699219 C 306.96875 287.09375 306.558594 287.464844 306.132812 287.816406 C 305.703125 288.164062 305.261719 288.496094 304.800781 288.800781 C 304.339844 289.109375 303.863281 289.394531 303.375 289.65625 C 302.886719 289.917969 302.386719 290.152344 301.878906 290.363281 C 301.367188 290.578125 300.84375 290.761719 300.316406 290.921875 C 299.785156 291.085938 299.25 291.21875 298.707031 291.328125 C 298.164062 291.433594 297.617188 291.515625 297.066406 291.570312 C 296.515625 291.625 295.960938 291.652344 295.40625 291.652344 C 294.855469 291.652344 294.300781 291.625 293.75 291.570312 C 293.199219 291.515625 292.652344 291.433594 292.109375 291.328125 C 291.566406 291.21875 291.03125 291.085938 290.5 290.921875 C 289.972656 290.761719 289.449219 290.578125 288.9375 290.363281 C 288.425781 290.152344 287.925781 289.917969 287.4375 289.65625 C 286.949219 289.394531 286.476562 289.109375 286.015625 288.800781 C 285.554688 288.496094 285.113281 288.164062 284.683594 287.816406 C 284.257812 287.464844 283.847656 287.09375 283.453125 286.699219 C 283.0625 286.308594 282.691406 285.898438 282.339844 285.472656 C 281.988281 285.042969 281.660156 284.597656 281.351562 284.140625 C 281.046875 283.679688 280.761719 283.203125 280.5 282.714844 C 280.238281 282.226562 280.003906 281.726562 279.789062 281.214844 C 279.578125 280.703125 279.390625 280.183594 279.230469 279.65625 C 279.070312 279.125 278.9375 278.589844 278.828125 278.046875 C 278.71875 277.503906 278.640625 276.957031 278.585938 276.402344 C 278.53125 275.851562 278.503906 275.300781 278.503906 274.746094 C 278.503906 274.195312 278.53125 273.640625 278.585938 273.089844 C 278.640625 272.539062 278.71875 271.992188 278.828125 271.449219 C 278.9375 270.90625 279.070312 270.371094 279.230469 269.839844 C 279.390625 269.308594 279.578125 268.789062 279.789062 268.277344 C 280.003906 267.765625 280.238281 267.265625 280.5 266.777344 C 280.761719 266.289062 281.046875 265.816406 281.351562 265.355469 C 281.660156 264.894531 281.988281 264.453125 282.339844 264.023438 C 282.691406 263.59375 283.0625 263.1875 283.453125 262.792969 C 283.847656 262.402344 284.257812 262.03125 284.683594 261.679688 C 285.113281 261.328125 285.554688 261 286.015625 260.691406 C 286.476562 260.382812 286.949219 260.101562 287.4375 259.839844 C 287.925781 259.578125 288.425781 259.339844 288.9375 259.128906 C 289.449219 258.917969 289.972656 258.730469 290.5 258.570312 C 291.03125 258.410156 291.566406 258.277344 292.109375 258.167969 C 292.652344 258.058594 293.199219 257.980469 293.75 257.925781 C 294.300781 257.871094 294.855469 257.84375 295.40625 257.84375 C 295.960938 257.84375 296.515625 257.871094 297.066406 257.925781 C 297.617188 257.980469 298.164062 258.058594 298.707031 258.167969 C 299.25 258.277344 299.785156 258.410156 300.316406 258.570312 C 300.84375 258.730469 301.367188 258.917969 301.878906 259.128906 C 302.386719 259.339844 302.886719 259.578125 303.375 259.839844 C 303.863281 260.101562 304.339844 260.382812 304.800781 260.691406 C 305.261719 261 305.703125 261.328125 306.132812 261.679688 C 306.558594 262.03125 306.96875 262.402344 307.359375 262.792969 C 307.753906 263.1875 308.125 263.59375 308.476562 264.023438 C 308.828125 264.453125 309.15625 264.894531 309.464844 265.355469 C 309.769531 265.816406 310.054688 266.289062 310.316406 266.777344 C 310.578125 267.265625 310.8125 267.765625 311.027344 268.277344 C 311.238281 268.789062 311.421875 269.308594 311.585938 269.839844 C 311.746094 270.371094 311.878906 270.90625 311.988281 271.449219 C 312.09375 271.992188 312.175781 272.539062 312.230469 273.089844 C 312.285156 273.640625 312.3125 274.195312 312.3125 274.746094 Z M 312.3125 274.746094 " fill-opacity="1" fill-rule="nonzero"/><path fill="#dd2e44" d="M 301.042969 233.425781 C 301.042969 234.164062 300.96875 234.898438 300.828125 235.625 C 300.683594 236.351562 300.46875 237.054688 300.183594 237.738281 C 299.902344 238.421875 299.554688 239.070312 299.144531 239.6875 C 298.734375 240.300781 298.265625 240.871094 297.742188 241.394531 C 297.21875 241.917969 296.648438 242.386719 296.035156 242.796875 C 295.417969 243.207031 294.769531 243.554688 294.085938 243.835938 C 293.402344 244.121094 292.699219 244.335938 291.972656 244.480469 C 291.246094 244.621094 290.511719 244.695312 289.773438 244.695312 C 289.035156 244.695312 288.300781 244.621094 287.574219 244.480469 C 286.847656 244.335938 286.144531 244.121094 285.460938 243.835938 C 284.777344 243.554688 284.128906 243.207031 283.511719 242.796875 C 282.898438 242.386719 282.328125 241.917969 281.804688 241.394531 C 281.28125 240.871094 280.8125 240.300781 280.402344 239.6875 C 279.992188 239.070312 279.644531 238.421875 279.363281 237.738281 C 279.078125 237.054688 278.863281 236.351562 278.71875 235.625 C 278.574219 234.898438 278.503906 234.164062 278.503906 233.425781 C 278.503906 232.6875 278.574219 231.953125 278.71875 231.226562 C 278.863281 230.5 279.078125 229.796875 279.363281 229.113281 C 279.644531 228.429688 279.992188 227.78125 280.402344 227.164062 C 280.8125 226.550781 281.28125 225.980469 281.804688 225.457031 C 282.328125 224.933594 282.898438 224.464844 283.511719 224.054688 C 284.128906 223.644531 284.777344 223.296875 285.460938 223.015625 C 286.144531 222.730469 286.847656 222.515625 287.574219 222.371094 C 288.300781 222.226562 289.035156 222.15625 289.773438 222.15625 C 290.511719 222.15625 291.246094 222.226562 291.972656 222.371094 C 292.699219 222.515625 293.402344 222.730469 294.085938 223.015625 C 294.769531 223.296875 295.417969 223.644531 296.035156 224.054688 C 296.648438 224.464844 297.21875 224.933594 297.742188 225.457031 C 298.265625 225.980469 298.734375 226.550781 299.144531 227.164062 C 299.554688 227.78125 299.902344 228.429688 300.183594 229.113281 C 300.46875 229.796875 300.683594 230.5 300.828125 231.226562 C 300.96875 231.953125 301.042969 232.6875 301.042969 233.425781 Z M 301.042969 233.425781 " fill-opacity="1" fill-rule="nonzero"/><g clip-path="url(#c905d0ce11)"><g clip-path="url(#a4d08cada0)"><path fill="#ffffff" d="M 250.773438 249.539062 L 272.050781 249.539062 L 272.050781 282.285156 L 250.773438 282.285156 Z M 250.773438 249.539062 " fill-opacity="1" fill-rule="nonzero"/></g></g><g clip-path="url(#b844871a20)"><g clip-path="url(#70fd3f20f1)"><path fill="#000000" d="M 251.03125 258.800781 L 266.285156 258.800781 L 266.285156 282.277344 L 251.03125 282.277344 Z M 251.03125 258.800781 " fill-opacity="1" fill-rule="nonzero"/></g></g><g clip-path="url(#48123227a0)"><g clip-path="url(#d37a0dd1c7)"><path fill="#ffffff" d="M 262.554688 263.03125 L 266.285156 263.03125 L 266.285156 268.773438 L 262.554688 268.773438 Z M 262.554688 263.03125 " fill-opacity="1" fill-rule="nonzero"/></g></g><g clip-path="url(#58f3d6ce0d)"><g clip-path="url(#19da3620df)"><path fill="#ffffff" d="M 282.261719 249.539062 L 303.539062 249.539062 L 303.539062 282.285156 L 282.261719 282.285156 Z M 282.261719 249.539062 " fill-opacity="1" fill-rule="nonzero"/></g></g><g clip-path="url(#ef835fdd57)"><g clip-path="url(#421436dad7)"><path fill="#000000" d="M 282.261719 258.800781 L 297.519531 258.800781 L 297.519531 282.277344 L 282.261719 282.277344 Z M 282.261719 258.800781 " fill-opacity="1" fill-rule="nonzero"/></g></g><g clip-path="url(#a1150c1e3c)"><g clip-path="url(#b2dc05d573)"><path fill="#ffffff" d="M 293.789062 263.03125 L 297.519531 263.03125 L 297.519531 268.773438 L 293.789062 268.773438 Z M 293.789062 263.03125 " fill-opacity="1" fill-rule="nonzero"/></g></g><g clip-path="url(#372505ca1d)"><path fill="#000000" d="M 269.113281 284.714844 L 284.214844 284.714844 C 284.308594 284.714844 284.386719 284.746094 284.453125 284.8125 C 284.515625 284.875 284.550781 284.957031 284.546875 285.046875 C 284.546875 285.566406 284.496094 286.082031 284.394531 286.59375 C 284.296875 287.105469 284.144531 287.597656 283.949219 288.078125 C 283.75 288.558594 283.507812 289.015625 283.21875 289.449219 C 282.929688 289.882812 282.605469 290.28125 282.238281 290.648438 C 281.871094 291.019531 281.472656 291.347656 281.042969 291.636719 C 280.613281 291.925781 280.160156 292.167969 279.679688 292.367188 C 279.203125 292.566406 278.710938 292.714844 278.203125 292.816406 C 277.695312 292.917969 277.183594 292.96875 276.664062 292.96875 C 276.148438 292.96875 275.636719 292.917969 275.128906 292.816406 C 274.621094 292.714844 274.128906 292.566406 273.648438 292.367188 C 273.171875 292.167969 272.714844 291.925781 272.285156 291.636719 C 271.855469 291.347656 271.457031 291.019531 271.09375 290.648438 C 270.726562 290.28125 270.398438 289.882812 270.113281 289.449219 C 269.824219 289.015625 269.582031 288.558594 269.382812 288.078125 C 269.183594 287.597656 269.035156 287.105469 268.933594 286.59375 C 268.832031 286.082031 268.78125 285.566406 268.78125 285.046875 C 268.78125 284.957031 268.8125 284.878906 268.878906 284.8125 C 268.941406 284.746094 269.019531 284.714844 269.113281 284.714844 Z M 269.113281 284.714844 " fill-opacity="1" fill-rule="nonzero"/></g></svg>